<?xml version="1.0" encoding="UTF-8"?>
<mxfile host="app.diagrams.net" modified="2024-01-01T00:00:00.000Z" agent="draw.io" version="22.1.16" etag="xxx">
  <diagram name="配音学英语App产品流程图" id="voice-learning-flowchart">
    <mxGraphModel dx="1422" dy="794" grid="1" gridSize="10" guides="1" tooltips="1" connect="1" arrows="1" fold="1" page="1" pageScale="1" pageWidth="827" pageHeight="1169" math="0" shadow="0">
      <root>
        <mxCell id="0" />
        <mxCell id="1" parent="0" />
        
        <mxCell id="start-node" value="用户打开App" style="rounded=1;whiteSpace=wrap;html=1;fillColor=#d5e8d4;strokeColor=#82b366;fontSize=12;fontStyle=1;" vertex="1" parent="1">
          <mxGeometry x="364" y="40" width="100" height="40" as="geometry" />
        </mxCell>
        
        <mxCell id="login-decision" value="是否已登录?" style="rhombus;whiteSpace=wrap;html=1;fillColor=#fff2cc;strokeColor=#d6b656;fontSize=12;" vertex="1" parent="1">
          <mxGeometry x="344" y="120" width="140" height="60" as="geometry" />
        </mxCell>
        
        <mxCell id="login-register" value="登录/注册" style="whiteSpace=wrap;html=1;fillColor=#dae8fc;strokeColor=#6c8ebf;fontSize=12;" vertex="1" parent="1">
          <mxGeometry x="154" y="130" width="100" height="40" as="geometry" />
        </mxCell>
        
        <mxCell id="select-mode" value="选择学习模式" style="whiteSpace=wrap;html=1;fillColor=#dae8fc;strokeColor=#6c8ebf;fontSize=12;" vertex="1" parent="1">
          <mxGeometry x="364" y="220" width="100" height="40" as="geometry" />
        </mxCell>
        
        <mxCell id="mode-decision" value="选择哪种模式?" style="rhombus;whiteSpace=wrap;html=1;fillColor=#fff2cc;strokeColor=#d6b656;fontSize=12;" vertex="1" parent="1">
          <mxGeometry x="344" y="300" width="140" height="60" as="geometry" />
        </mxCell>
        
        <mxCell id="follow-reading" value="跟读练习" style="whiteSpace=wrap;html=1;fillColor=#e1d5e7;strokeColor=#9673a6;fontSize=12;" vertex="1" parent="1">
          <mxGeometry x="154" y="310" width="100" height="40" as="geometry" />
        </mxCell>
        
        <mxCell id="voice-challenge" value="配音挑战" style="whiteSpace=wrap;html=1;fillColor=#e1d5e7;strokeColor=#9673a6;fontSize=12;" vertex="1" parent="1">
          <mxGeometry x="574" y="310" width="100" height="40" as="geometry" />
        </mxCell>
        
        <mxCell id="select-content" value="选择学习内容" style="whiteSpace=wrap;html=1;fillColor=#dae8fc;strokeColor=#6c8ebf;fontSize=12;" vertex="1" parent="1">
          <mxGeometry x="364" y="400" width="100" height="40" as="geometry" />
        </mxCell>
        
        <mxCell id="play-original" value="播放原音" style="whiteSpace=wrap;html=1;fillColor=#f8cecc;strokeColor=#b85450;fontSize=12;" vertex="1" parent="1">
          <mxGeometry x="364" y="480" width="100" height="40" as="geometry" />
        </mxCell>
        
        <mxCell id="user-voice" value="用户开始配音" style="whiteSpace=wrap;html=1;fillColor=#e1d5e7;strokeColor=#9673a6;fontSize=12;" vertex="1" parent="1">
          <mxGeometry x="364" y="560" width="100" height="40" as="geometry" />
        </mxCell>
        
        <mxCell id="ai-scoring" value="AI智能评分" style="whiteSpace=wrap;html=1;fillColor=#f8cecc;strokeColor=#b85450;fontSize=12;" vertex="1" parent="1">
          <mxGeometry x="364" y="640" width="100" height="40" as="geometry" />
        </mxCell>
        
        <mxCell id="score-result" value="显示评分结果&lt;br/&gt;发音分析" style="whiteSpace=wrap;html=1;fillColor=#fff2cc;strokeColor=#d6b656;fontSize=12;" vertex="1" parent="1">
          <mxGeometry x="364" y="720" width="100" height="50" as="geometry" />
        </mxCell>
        
        <mxCell id="continue-decision" value="是否继续&lt;br/&gt;练习?" style="rhombus;whiteSpace=wrap;html=1;fillColor=#fff2cc;strokeColor=#d6b656;fontSize=12;" vertex="1" parent="1">
          <mxGeometry x="344" y="810" width="140" height="60" as="geometry" />
        </mxCell>
        
        <mxCell id="save-progress" value="保存学习进度" style="whiteSpace=wrap;html=1;fillColor=#dae8fc;strokeColor=#6c8ebf;fontSize=12;" vertex="1" parent="1">
          <mxGeometry x="574" y="820" width="100" height="40" as="geometry" />
        </mxCell>
        
        <mxCell id="view-report" value="查看学习报告" style="whiteSpace=wrap;html=1;fillColor=#dae8fc;strokeColor=#6c8ebf;fontSize=12;" vertex="1" parent="1">
          <mxGeometry x="574" y="900" width="100" height="40" as="geometry" />
        </mxCell>
        
        <mxCell id="end-node" value="结束学习" style="rounded=1;whiteSpace=wrap;html=1;fillColor=#d5e8d4;strokeColor=#82b366;fontSize=12;fontStyle=1;" vertex="1" parent="1">
          <mxGeometry x="574" y="980" width="100" height="40" as="geometry" />
        </mxCell>
        
        <mxCell id="edge-start-login" value="" style="edgeStyle=orthogonalEdgeStyle;rounded=0;orthogonalLoop=1;jettySize=auto;html=1;" edge="1" parent="1" source="start-node" target="login-decision">
          <mxGeometry relative="1" as="geometry" />
        </mxCell>
        
        <mxCell id="edge-login-no" value="否" style="edgeStyle=orthogonalEdgeStyle;rounded=0;orthogonalLoop=1;jettySize=auto;html=1;" edge="1" parent="1" source="login-decision" target="login-register">
          <mxGeometry relative="1" as="geometry" />
        </mxCell>
        
        <mxCell id="edge-login-yes" value="是" style="edgeStyle=orthogonalEdgeStyle;rounded=0;orthogonalLoop=1;jettySize=auto;html=1;" edge="1" parent="1" source="login-decision" target="select-mode">
          <mxGeometry relative="1" as="geometry" />
        </mxCell>
        
        <mxCell id="edge-register-mode" value="" style="edgeStyle=orthogonalEdgeStyle;rounded=0;orthogonalLoop=1;jettySize=auto;html=1;" edge="1" parent="1" source="login-register" target="select-mode">
          <mxGeometry relative="1" as="geometry">
            <Array as="points">
              <mxPoint x="204" y="240" />
              <mxPoint x="414" y="240" />
            </Array>
          </mxGeometry>
        </mxCell>
        
        <mxCell id="edge-mode-decision" value="" style="edgeStyle=orthogonalEdgeStyle;rounded=0;orthogonalLoop=1;jettySize=auto;html=1;" edge="1" parent="1" source="select-mode" target="mode-decision">
          <mxGeometry relative="1" as="geometry" />
        </mxCell>
        
        <mxCell id="edge-mode-follow" value="跟读模式" style="edgeStyle=orthogonalEdgeStyle;rounded=0;orthogonalLoop=1;jettySize=auto;html=1;" edge="1" parent="1" source="mode-decision" target="follow-reading">
          <mxGeometry relative="1" as="geometry" />
        </mxCell>
        
        <mxCell id="edge-mode-challenge" value="挑战模式" style="edgeStyle=orthogonalEdgeStyle;rounded=0;orthogonalLoop=1;jettySize=auto;html=1;" edge="1" parent="1" source="mode-decision" target="voice-challenge">
          <mxGeometry relative="1" as="geometry" />
        </mxCell>
        
        <mxCell id="edge-follow-content" value="" style="edgeStyle=orthogonalEdgeStyle;rounded=0;orthogonalLoop=1;jettySize=auto;html=1;" edge="1" parent="1" source="follow-reading" target="select-content">
          <mxGeometry relative="1" as="geometry">
            <Array as="points">
              <mxPoint x="204" y="420" />
              <mxPoint x="414" y="420" />
            </Array>
          </mxGeometry>
        </mxCell>
        
        <mxCell id="edge-challenge-content" value="" style="edgeStyle=orthogonalEdgeStyle;rounded=0;orthogonalLoop=1;jettySize=auto;html=1;" edge="1" parent="1" source="voice-challenge" target="select-content">
          <mxGeometry relative="1" as="geometry">
            <Array as="points">
              <mxPoint x="624" y="420" />
              <mxPoint x="414" y="420" />
            </Array>
          </mxGeometry>
        </mxCell>
        
        <mxCell id="edge-content-play" value="" style="edgeStyle=orthogonalEdgeStyle;rounded=0;orthogonalLoop=1;jettySize=auto;html=1;" edge="1" parent="1" source="select-content" target="play-original">
          <mxGeometry relative="1" as="geometry" />
        </mxCell>
        
        <mxCell id="edge-play-voice" value="" style="edgeStyle=orthogonalEdgeStyle;rounded=0;orthogonalLoop=1;jettySize=auto;html=1;" edge="1" parent="1" source="play-original" target="user-voice">
          <mxGeometry relative="1" as="geometry" />
        </mxCell>
        
        <mxCell id="edge-voice-scoring" value="" style="edgeStyle=orthogonalEdgeStyle;rounded=0;orthogonalLoop=1;jettySize=auto;html=1;" edge="1" parent="1" source="user-voice" target="ai-scoring">
          <mxGeometry relative="1" as="geometry" />
        </mxCell>
        
        <mxCell id="edge-scoring-result" value="" style="edgeStyle=orthogonalEdgeStyle;rounded=0;orthogonalLoop=1;jettySize=auto;html=1;" edge="1" parent="1" source="ai-scoring" target="score-result">
          <mxGeometry relative="1" as="geometry" />
        </mxCell>
        
        <mxCell id="edge-result-continue" value="" style="edgeStyle=orthogonalEdgeStyle;rounded=0;orthogonalLoop=1;jettySize=auto;html=1;" edge="1" parent="1" source="score-result" target="continue-decision">
          <mxGeometry relative="1" as="geometry" />
        </mxCell>
        
        <mxCell id="edge-continue-yes" value="是" style="edgeStyle=orthogonalEdgeStyle;rounded=0;orthogonalLoop=1;jettySize=auto;html=1;" edge="1" parent="1" source="continue-decision" target="select-content">
          <mxGeometry relative="1" as="geometry">
            <Array as="points">
              <mxPoint x="314" y="840" />
              <mxPoint x="314" y="420" />
            </Array>
          </mxGeometry>
        </mxCell>
        
        <mxCell id="edge-continue-no" value="否" style="edgeStyle=orthogonalEdgeStyle;rounded=0;orthogonalLoop=1;jettySize=auto;html=1;" edge="1" parent="1" source="continue-decision" target="save-progress">
          <mxGeometry relative="1" as="geometry" />
        </mxCell>
        
        <mxCell id="edge-save-report" value="" style="edgeStyle=orthogonalEdgeStyle;rounded=0;orthogonalLoop=1;jettySize=auto;html=1;" edge="1" parent="1" source="save-progress" target="view-report">
          <mxGeometry relative="1" as="geometry" />
        </mxCell>
        
        <mxCell id="edge-report-end" value="" style="edgeStyle=orthogonalEdgeStyle;rounded=0;orthogonalLoop=1;jettySize=auto;html=1;" edge="1" parent="1" source="view-report" target="end-node">
          <mxGeometry relative="1" as="geometry" />
        </mxCell>
        
      </root>
    </mxGraphModel>
  </diagram>
</mxfile>